# xmcd
#
# Track frame offsets:
#	150
#	2523
#	16319
#	35553
#	37176
#	49308
#	65100
#	78602
#	90220
#	93327
#	110576
#	129224
#	134432
#
# Disc length: 1923 seconds
#
# Revision: 0
# Processed by: cddbd v1.5.2PL0 Copyright (c) Steve Scherf et al.
# Submitted via: EZCDAudioConverter 2.4.0.1
#
DISCID=a707810d
DTITLE=Automatic City - Bongoes And Tremoloes
DYEAR=2017
DGENRE=Elctronic/Rock/Blues
TTITLE0=Spaces Out On The Sticks
TTITLE1=I Wish You Would
TTITLE2=Crawfish
TTITLE3=Bongoes And Tremoloes
TTITLE4=Satisfied
TTITLE5=Resolution Blues
TTITLE6=Evil Eye On You
TTITLE7=Mellow Down Easy
TTITLE8=Moonshine Twang
TTITLE9=Havana Moon
TTITLE10=More Spaced Out On The Sticks
TTITLE11=Going Down South
TTITLE12=Puppet Made Of Shipwreck Wood
EXTD=
EXTT0=
EXTT1=
EXTT2=
EXTT3=
EXTT4=
EXTT5=
EXTT6=
EXTT7=
EXTT8=
EXTT9=
EXTT10=
EXTT11=
EXTT12=
PLAYORDER=
